<svg xmlns="http://www.w3.org/2000/svg" viewBox="0 0 780 430" role="img">
<defs>
 <linearGradient id="gold" x1="0" x2="1" y1="0" y2="1"><stop stop-color="#fff3bf"/><stop offset=".25" stop-color="#bb9255"/><stop offset=".49" stop-color="#fff4c9"/><stop offset=".71" stop-color="#aa6c38"/><stop offset="1" stop-color="#fbe0a6"/></linearGradient>
 <linearGradient id="silver" x1="0" x2=".8" y1="0" y2="1"><stop stop-color="#fff"/><stop offset=".25" stop-color="#adc5da"/><stop offset=".5" stop-color="#fafaff"/><stop offset=".75" stop-color="#6485a1"/><stop offset="1" stop-color="#b9d6e6"/></linearGradient>
 <linearGradient id="wood" x1="0" x2="1" y1="0" y2="1"><stop stop-color="#e7a568"/><stop offset=".34" stop-color="#9d5731"/><stop offset=".64" stop-color="#4c261e"/><stop offset="1" stop-color="#e2a46d"/></linearGradient>
 <linearGradient id="black" x1="0" x2="0" y1="0" y2="1"><stop stop-color="#455165"/><stop offset=".3" stop-color="#162337"/><stop offset=".68" stop-color="#0c1426"/><stop offset="1" stop-color="#738394"/></linearGradient>
 <filter id="shadow" x="-20%" y="-35%" width="155%" height="180%"><feDropShadow dx="2" dy="13" stdDeviation="10" flood-color="#000" flood-opacity=".58"/></filter>
</defs><g filter="url(#shadow)">
<g stroke="#131c29" stroke-width="3"><path d="M80 178 L652 178 L697 220 L116 220Z" fill="url(#black)"/><path d="M112 223 L697 223 L675 247 L128 247Z" fill="url(#gold)"/></g>
<g stroke="#38495c" stroke-width="5"><rect x="115.0" y="252" width="18" height="88" rx="7" fill="url(#gold)" stroke="#af8c57" stroke-width="1"/><rect x="145.7" y="252" width="18" height="93" rx="7" fill="url(#gold)" stroke="#af8c57" stroke-width="1"/><rect x="176.4" y="252" width="18" height="98" rx="7" fill="url(#gold)" stroke="#af8c57" stroke-width="1"/><rect x="207.1" y="252" width="18" height="103" rx="7" fill="url(#gold)" stroke="#af8c57" stroke-width="1"/><rect x="237.8" y="252" width="18" height="88" rx="7" fill="url(#gold)" stroke="#af8c57" stroke-width="1"/><rect x="268.5" y="252" width="18" height="93" rx="7" fill="url(#gold)" stroke="#af8c57" stroke-width="1"/><rect x="299.2" y="252" width="18" height="98" rx="7" fill="url(#gold)" stroke="#af8c57" stroke-width="1"/><rect x="329.9" y="252" width="18" height="103" rx="7" fill="url(#gold)" stroke="#af8c57" stroke-width="1"/><rect x="360.6" y="252" width="18" height="88" rx="7" fill="url(#gold)" stroke="#af8c57" stroke-width="1"/><rect x="391.3" y="252" width="18" height="93" rx="7" fill="url(#gold)" stroke="#af8c57" stroke-width="1"/><rect x="422.0" y="252" width="18" height="98" rx="7" fill="url(#gold)" stroke="#af8c57" stroke-width="1"/><rect x="452.7" y="252" width="18" height="103" rx="7" fill="url(#gold)" stroke="#af8c57" stroke-width="1"/><rect x="483.4" y="252" width="18" height="88" rx="7" fill="url(#gold)" stroke="#af8c57" stroke-width="1"/><rect x="514.1" y="252" width="18" height="93" rx="7" fill="url(#gold)" stroke="#af8c57" stroke-width="1"/><rect x="544.8" y="252" width="18" height="98" rx="7" fill="url(#gold)" stroke="#af8c57" stroke-width="1"/><rect x="575.5" y="252" width="18" height="103" rx="7" fill="url(#gold)" stroke="#af8c57" stroke-width="1"/><rect x="606.2" y="252" width="18" height="88" rx="7" fill="url(#gold)" stroke="#af8c57" stroke-width="1"/><rect x="636.9" y="252" width="18" height="93" rx="7" fill="url(#gold)" stroke="#af8c57" stroke-width="1"/></g>
<g stroke="#19222a" stroke-width="5"><path d="M102 172 l23 -4 l20 34 l-22 5Z" fill="url(#silver)" stroke="#68859b" stroke-width="2"/><path d="M133 170.2 l23 -4 l20 34 l-22 5Z" fill="url(#silver)" stroke="#68859b" stroke-width="2"/><path d="M164 168.4 l23 -4 l20 34 l-22 5Z" fill="url(#silver)" stroke="#68859b" stroke-width="2"/><path d="M195 166.6 l23 -4 l20 34 l-22 5Z" fill="url(#silver)" stroke="#68859b" stroke-width="2"/><path d="M226 164.8 l23 -4 l20 34 l-22 5Z" fill="url(#silver)" stroke="#68859b" stroke-width="2"/><path d="M257 163 l23 -4 l20 34 l-22 5Z" fill="url(#silver)" stroke="#68859b" stroke-width="2"/><path d="M288 161.2 l23 -4 l20 34 l-22 5Z" fill="url(#silver)" stroke="#68859b" stroke-width="2"/><path d="M319 159.4 l23 -4 l20 34 l-22 5Z" fill="url(#silver)" stroke="#68859b" stroke-width="2"/><path d="M350 157.6 l23 -4 l20 34 l-22 5Z" fill="url(#silver)" stroke="#68859b" stroke-width="2"/><path d="M381 155.8 l23 -4 l20 34 l-22 5Z" fill="url(#silver)" stroke="#68859b" stroke-width="2"/><path d="M412 154 l23 -4 l20 34 l-22 5Z" fill="url(#silver)" stroke="#68859b" stroke-width="2"/><path d="M443 152.2 l23 -4 l20 34 l-22 5Z" fill="url(#silver)" stroke="#68859b" stroke-width="2"/><path d="M474 150.4 l23 -4 l20 34 l-22 5Z" fill="url(#silver)" stroke="#68859b" stroke-width="2"/><path d="M505 148.6 l23 -4 l20 34 l-22 5Z" fill="url(#silver)" stroke="#68859b" stroke-width="2"/><path d="M536 146.8 l23 -4 l20 34 l-22 5Z" fill="url(#silver)" stroke="#68859b" stroke-width="2"/><path d="M567 145 l23 -4 l20 34 l-22 5Z" fill="url(#silver)" stroke="#68859b" stroke-width="2"/><path d="M598 143.2 l23 -4 l20 34 l-22 5Z" fill="url(#silver)" stroke="#68859b" stroke-width="2"/><path d="M629 141.4 l23 -4 l20 34 l-22 5Z" fill="url(#silver)" stroke="#68859b" stroke-width="2"/></g>
<path d="M128 246L105 384 M661 251L681 387 M116 363L676 363" fill="none" stroke="url(#silver)" stroke-width="15" stroke-linecap="round"/>
<g fill="#1c2737" stroke="#cfd6d8" stroke-width="5"><circle cx="106" cy="389" r="17"/><circle cx="683" cy="389" r="17"/></g>
<path d="M420 93L581 179 M485 92L602 177" stroke="url(#wood)" stroke-width="9" stroke-linecap="round"/>
<circle cx="414" cy="91" r="17" fill="#fcf8ec" stroke="#9eaaad" stroke-width="2"/><circle cx="480" cy="92" r="17" fill="#fcf8ec" stroke="#9eaaad" stroke-width="2"/></g></svg>